<svg width="26" height="26" viewBox="0 0 26 26" fill="none" xmlns="http://www.w3.org/2000/svg">
<path d="M13 3.51551H17.3697C19.1178 3.51551 19.9918 3.51551 20.6595 3.85571C21.2468 4.15495 21.7243 4.63245 22.0235 5.21975C22.3637 5.88742 22.3637 6.76145 22.3637 8.50951V17.249C22.3637 18.9971 22.3637 19.8711 22.0235 20.5388C21.7243 21.1261 21.2468 21.6036 20.6595 21.9028C19.9918 22.243 19.1178 22.243 17.3697 22.243H8.63024C6.88218 22.243 6.00815 22.243 5.34047 21.9028C4.75317 21.6036 4.27568 21.1261 3.97644 20.5388C3.63624 19.8711 3.63624 18.9971 3.63624 17.249V12.8793M8.83832 13.9197V18.0813M17.1617 11.8388V18.0813M13 7.67718V18.0813M2.59583 5.59635L5.71707 2.4751M5.71707 2.4751L8.83832 5.59635M5.71707 2.4751L5.71707 8.7176" stroke="#666B7E" stroke-opacity="0.8" stroke-width="1.44" stroke-linecap="round" stroke-linejoin="round"/>
</svg>
