<svg width="27" height="26" viewBox="0 0 27 26" fill="none" xmlns="http://www.w3.org/2000/svg">
<path d="M21.0856 22.7493V16.2493M17.8356 19.4993H24.3356M24.3356 10.8327H2.66895M24.3356 12.9993V8.88268C24.3356 7.66924 24.3356 7.06251 24.0995 6.59904C23.8917 6.19135 23.5603 5.8599 23.1526 5.65217C22.6891 5.41602 22.0824 5.41602 20.8689 5.41602H6.13561C4.92217 5.41602 4.31544 5.41602 3.85197 5.65217C3.44428 5.85989 3.11282 6.19135 2.9051 6.59904C2.66895 7.06251 2.66895 7.66924 2.66895 8.88268V17.116C2.66895 18.3295 2.66895 18.9362 2.9051 19.3997C3.11282 19.8073 3.44428 20.1388 3.85197 20.3465C4.31544 20.5827 4.92216 20.5827 6.13561 20.5827H13.5023" stroke="#666B7E" stroke-opacity="0.8" stroke-width="1.5" stroke-linecap="round" stroke-linejoin="round"/>
</svg>
