<svg width="171" height="170" viewBox="0 0 171 170" fill="none" xmlns="http://www.w3.org/2000/svg">
<path d="M85.5 139.057C117.595 139.057 143.613 128.85 143.613 116.259C143.613 103.669 117.595 93.4622 85.5 93.4622C53.4049 93.4622 27.3867 103.669 27.3867 116.259C27.3867 128.85 53.4049 139.057 85.5 139.057Z" fill="#F9FAFB"/>
<path d="M64.9284 61.0632C65.3738 58.2708 68.0844 55.9994 70.9807 55.99L67.2438 65.6642C65.5737 64.8583 64.6041 63.0985 64.9284 61.0632Z" fill="#D0D5DD"/>
<path d="M67.2425 66.0185C67.189 66.0185 67.137 66.0075 67.0882 65.9838C65.2245 65.0835 64.2391 63.13 64.5776 61.0082C65.0482 58.0568 67.9193 55.6469 70.9778 55.6375C70.9778 55.6375 70.9778 55.6375 70.9793 55.6375C71.0958 55.6375 71.2044 55.6941 71.2705 55.7901C71.3366 55.8862 71.3508 56.0089 71.3099 56.1191L67.573 65.7934C67.5368 65.8863 67.4644 65.9587 67.3731 65.9949C67.3306 66.0106 67.2866 66.0185 67.2425 66.0185ZM70.4536 56.3725C67.9319 56.6338 65.67 58.6644 65.2796 61.1184C65.0136 62.79 65.7062 64.3358 67.0583 65.1606L70.4536 56.3725Z" fill="#F9FAFB"/>
<path d="M120.565 58.4001L122.813 52.5823H72.2961L71.6019 54.3814C73.9237 54.4932 75.7654 55.7304 76.6421 57.5406C76.9318 57.4666 77.2277 57.4273 77.5157 57.4273C78.3343 57.4273 78.9985 57.7421 79.3794 58.3072C79.7635 58.8802 79.8076 59.6672 79.4975 60.4589C78.8946 62.0126 77.1537 63.2293 75.5356 63.2293C74.717 63.2293 74.0559 62.9192 73.6766 62.3494C73.2878 61.778 73.2453 60.9926 73.5538 60.1976C73.8419 59.4626 74.3818 58.8046 75.0429 58.3135C74.3267 56.9157 72.8439 55.9917 70.9802 55.9917L67.2433 65.6644L66.62 67.2763L65.8188 69.3572C68.1358 69.4642 69.9759 70.692 70.8621 72.4912C71.1392 72.4266 71.4209 72.3904 71.6948 72.3904C72.5133 72.3904 73.1744 72.7005 73.5569 73.2703C73.9426 73.8433 73.9851 74.6272 73.6782 75.4221C73.0737 76.9757 71.3344 78.1909 69.7162 78.1909C68.8977 78.1909 68.2334 77.8808 67.8541 77.3141C67.4684 76.7412 67.4228 75.9541 67.7329 75.1592C68.0225 74.4131 68.5766 73.7441 69.2534 73.2499C68.8914 72.562 68.342 71.9906 67.6526 71.5939C67.0025 71.2209 66.2312 70.9974 65.3686 70.9706C65.3214 70.969 65.2742 70.969 65.2254 70.969H65.1939L61.4586 80.6354L60.8353 82.2473L60.0309 84.3329C62.3527 84.4352 64.1991 85.6583 65.0869 87.4606C65.3686 87.3914 65.6535 87.3536 65.9369 87.3536C66.7554 87.3536 67.4149 87.6668 67.7958 88.2335C68.1815 88.8064 68.2287 89.5903 67.9186 90.3852C67.3142 91.9389 65.5732 93.1556 63.9535 93.1556C63.135 93.1556 62.4755 92.8424 62.0945 92.2757C61.7089 91.7027 61.6632 90.9157 61.9733 90.1239C62.2614 89.3826 62.8076 88.7183 63.4782 88.2272C62.7541 86.8514 61.2839 85.9464 59.4013 85.9479L55.4882 96.0802L55.049 97.2167V97.2183L54.2415 99.3071C56.5585 99.4047 58.4049 100.617 59.3006 102.405C59.5634 102.345 59.8294 102.314 60.0907 102.314C60.9093 102.314 61.5704 102.627 61.9529 103.193C62.3385 103.766 62.381 104.55 62.0709 105.348C61.4681 106.9 59.7271 108.117 58.1106 108.117C57.292 108.117 56.6309 107.804 56.2484 107.237C55.8628 106.664 55.8203 105.88 56.1272 105.082C56.4247 104.325 56.9914 103.647 57.6808 103.151C56.9489 101.805 55.4913 100.921 53.6166 100.924L49.8671 110.628L49.2643 112.188L45.9697 120.715H96.4865L102.386 105.443H70.9865L89.3024 58.4016H120.565V58.4001ZM86.6658 115.917H61.5845L62.2095 114.299H87.2923L86.6658 115.917ZM89.3119 109.073L88.6838 110.691H63.6041L64.2274 109.073H89.3119Z" fill="#F7F9FC" stroke="#F9FAFB" stroke-width="5.1" stroke-miterlimit="10" stroke-linecap="round" stroke-linejoin="round"/>
<path d="M76.2239 61.0631C76.7386 61.0631 77.1967 60.6208 77.203 60.1313C77.2108 59.6213 77.1557 59.1286 77.0424 58.6611C77.1368 58.6485 77.2297 58.6406 77.321 58.6406C77.7507 58.6406 78.0892 58.7917 78.2749 59.0641C78.4685 59.3537 78.4827 59.7535 78.3095 60.1942C77.9255 61.1796 76.7433 62.0139 75.728 62.0139C75.2999 62.0139 74.9615 61.8628 74.7757 61.5873C74.5806 61.2977 74.5695 60.8978 74.7395 60.4571C74.8796 60.0966 75.1268 59.7582 75.4321 59.4717C75.4841 59.7551 75.5093 60.0494 75.5045 60.3532C75.4998 60.7593 75.802 61.0631 76.2239 61.0631Z" fill="#F7F9FC"/>
<path d="M75.7285 62.3696C75.1776 62.3696 74.7353 62.1633 74.4834 61.7871C74.2237 61.4015 74.1969 60.8836 74.411 60.3311C74.5653 59.9329 74.836 59.5472 75.1933 59.2151C75.2878 59.127 75.4231 59.0971 75.5459 59.138C75.6687 59.1789 75.76 59.2828 75.7836 59.4103C75.8403 59.7188 75.867 60.0383 75.8623 60.361C75.8607 60.4602 75.8922 60.5468 75.9536 60.6082C76.0197 60.6743 76.1141 60.7105 76.2259 60.7105C76.5439 60.7105 76.8477 60.4271 76.8508 60.1281C76.8571 59.6543 76.8067 59.1899 76.6997 58.746C76.6761 58.6484 76.695 58.5461 76.7516 58.4643C76.8083 58.3824 76.8965 58.3273 76.9956 58.3132C77.1058 58.2974 77.2176 58.2896 77.323 58.2896C77.874 58.2896 78.3163 58.4958 78.5697 58.8688C78.831 59.2608 78.8562 59.7771 78.6405 60.3264C78.2014 61.4534 76.8965 62.3696 75.7285 62.3696ZM75.154 60.4051C75.1225 60.4649 75.0957 60.5263 75.0721 60.5877C74.9446 60.9167 74.9446 61.2032 75.0721 61.392C75.1886 61.5668 75.4231 61.6628 75.7301 61.6628C76.599 61.6628 77.652 60.9183 77.9826 60.0698C78.1116 59.7408 78.1116 59.4559 77.9826 59.2639C77.8865 59.1222 77.7087 59.0325 77.4757 59.0058C77.5371 59.3757 77.5654 59.755 77.5591 60.1375C77.5497 60.8191 76.9279 61.4188 76.2259 61.4188C75.9237 61.4188 75.6482 61.3071 75.4499 61.1056C75.2657 60.9198 75.1618 60.6743 75.154 60.4051Z" fill="#F9FAFB"/>
<path d="M75.5371 63.5834C74.5958 63.5834 73.8308 63.2151 73.3822 62.5477C72.9304 61.8803 72.8737 60.9768 73.2248 60.0701C73.5254 59.3004 74.0968 58.5763 74.8319 58.0301C74.8933 57.9844 74.9673 57.9608 75.0428 57.9608C75.0696 57.9608 75.0963 57.964 75.1231 57.9703C75.2238 57.9939 75.3104 58.0616 75.3576 58.1544C75.5591 58.548 75.7023 58.9714 75.7826 59.4137C75.8047 59.5318 75.7637 59.6545 75.6756 59.7364C75.3954 59.9977 75.1876 60.2936 75.0711 60.5911C74.9436 60.9201 74.9436 61.2066 75.0711 61.3955C75.1892 61.5702 75.4222 61.6662 75.7291 61.6662C76.598 61.6662 77.6511 60.9217 77.9816 60.0732C78.1107 59.7443 78.1107 59.4593 77.9816 59.2673C77.8651 59.0957 77.6306 58.9997 77.3221 58.9997C77.2481 58.9997 77.171 59.006 77.0923 59.017C77.0749 59.0186 77.0592 59.0202 77.0435 59.0202C76.8813 59.0202 76.7381 58.91 76.6987 58.7494C76.6106 58.3843 76.4847 58.0317 76.3241 57.6995C76.2769 57.6035 76.2769 57.4918 76.3225 57.3957C76.3682 57.2997 76.4532 57.2273 76.5571 57.2021C76.8813 57.1203 77.204 57.0793 77.5173 57.0793C78.457 57.0793 79.2236 57.4477 79.6737 58.1151C80.1255 58.7888 80.1806 59.6923 79.8296 60.5943C79.1763 62.2675 77.2906 63.5834 75.5371 63.5834Z" fill="#D0D5DD"/>
<path d="M77.5186 57.4271C78.3371 57.4271 78.9998 57.7403 79.3808 58.307C79.7648 58.88 79.8105 59.6654 79.5004 60.4588C78.8959 62.0124 77.155 63.2275 75.5384 63.2275C74.7199 63.2275 74.0588 62.9159 73.6779 62.3476C73.2907 61.7763 73.2482 60.9908 73.5567 60.1959C73.8432 59.4608 74.3831 58.8028 75.0442 58.3117C75.2283 58.6706 75.3606 59.0594 75.4361 59.4734C75.1292 59.7599 74.8836 60.0983 74.7435 60.4588C74.5735 60.8995 74.5846 61.2993 74.7797 61.5889C74.9639 61.8644 75.3023 62.0155 75.7305 62.0155C76.7458 62.0155 77.9295 61.1813 78.312 60.1959C78.4835 59.7551 78.4709 59.3553 78.2773 59.0657C78.0916 58.7934 77.7547 58.6423 77.3234 58.6423C77.2321 58.6423 77.1393 58.6486 77.0448 58.6627C76.9504 58.2692 76.815 57.8946 76.6434 57.5404C76.9346 57.4664 77.229 57.4271 77.5186 57.4271ZM77.5186 56.7188C77.1771 56.7188 76.826 56.7644 76.4734 56.8525C76.2672 56.9045 76.0941 57.0462 76.0044 57.2398C75.9146 57.4334 75.9162 57.6569 76.0091 57.8489C76.1586 58.159 76.2767 58.488 76.3585 58.828C76.4357 59.1507 76.7237 59.3711 77.0464 59.3711C77.0795 59.3711 77.1125 59.3695 77.1456 59.3648C77.207 59.3553 77.2683 59.3522 77.3266 59.3522C77.506 59.3522 77.6461 59.3963 77.6933 59.4655C77.7374 59.5316 77.7516 59.6938 77.6556 59.9409C77.377 60.6571 76.4609 61.3088 75.7336 61.3088C75.5558 61.3088 75.4172 61.2663 75.37 61.197C75.3259 61.1309 75.3086 60.9672 75.4062 60.7169C75.5022 60.4698 75.6817 60.2195 75.9225 59.9944C76.0988 59.8291 76.1791 59.5867 76.135 59.349C76.0469 58.8721 75.8926 58.4172 75.6754 57.9922C75.5809 57.8064 75.4094 57.6726 75.2063 57.6254C75.1528 57.6128 75.0993 57.6065 75.0458 57.6065C74.8946 57.6065 74.7467 57.6553 74.6239 57.7466C73.8353 58.3322 73.223 59.1113 72.8987 59.9425C72.5036 60.9609 72.576 61.984 73.0923 62.749C73.6071 63.5172 74.4775 63.9406 75.54 63.9406C77.4604 63.9406 79.4484 62.5554 80.1631 60.72C80.5582 59.7095 80.4889 58.6863 79.9726 57.9166C79.45 57.1422 78.5796 56.7188 77.5186 56.7188Z" fill="#F9FAFB"/>
<path d="M60.9855 23.24L72.2968 52.5823L71.6011 54.3815C71.4862 54.3768 71.3681 54.3736 71.2516 54.3736C67.425 54.3736 63.8377 57.3722 63.249 61.0634C62.8004 63.8779 64.2218 66.2878 66.6191 67.2747L65.8148 69.3541C65.7046 69.3493 65.5944 69.3462 65.4826 69.3462C61.6561 69.3462 58.0672 72.3464 57.48 76.036C57.0314 78.8457 58.4465 81.2525 60.836 82.2426L60.03 84.3282C59.9262 84.3251 59.8207 84.3204 59.7137 84.3204C55.8871 84.3204 52.2966 87.3205 51.7079 91.0117C51.2609 93.8136 52.6712 96.2172 55.0512 97.2104L54.2437 99.3008C54.1131 99.2961 54.0328 99.2945 53.9541 99.2945C50.3463 99.2945 46.8377 102.019 46.0318 105.515C45.3408 108.508 46.7653 111.125 49.2681 112.18L45.9736 120.708L34.5615 91.4037L60.9855 23.24Z" fill="#98A2B3"/>
<path d="M45.9703 121.067C45.8239 121.067 45.6933 120.977 45.6397 120.842L34.2277 91.5374C34.1962 91.4556 34.1962 91.3627 34.2277 91.2808L60.6548 23.1124C60.7084 22.9755 60.839 22.8857 60.9854 22.8857C61.1318 22.8857 61.2624 22.9755 61.3159 23.1124L72.6272 52.4547C72.6587 52.5366 72.6587 52.6279 72.6272 52.7097L71.9315 54.5089C71.8764 54.6506 71.7379 54.7419 71.5836 54.7356C71.475 54.7308 71.3617 54.7293 71.2515 54.7293C67.5934 54.7293 64.1603 57.5957 63.5984 61.12C63.1859 63.7015 64.4247 65.9902 66.7528 66.9488C66.9307 67.0228 67.0172 67.2243 66.948 67.4037L66.1436 69.4831C66.0885 69.6263 65.9484 69.716 65.7958 69.7097C65.6919 69.705 65.5864 69.7034 65.4809 69.7034C61.8228 69.7034 58.3897 72.5698 57.8278 76.0942C57.417 78.6694 58.6495 80.9565 60.9697 81.9182C61.1475 81.9922 61.2341 82.1937 61.1648 82.3732L60.3589 84.4588C60.3038 84.5989 60.1669 84.6886 60.0158 84.6855C59.9103 84.6823 59.8127 84.6792 59.712 84.6792C56.0522 84.6792 52.6192 87.5471 52.0557 91.0731C51.6464 93.642 52.8742 95.9244 55.1849 96.8893C55.3612 96.9632 55.4478 97.1647 55.3785 97.3442L54.571 99.4345C54.5175 99.5715 54.3869 99.6612 54.2405 99.6612C54.2358 99.6612 54.2326 99.6612 54.2279 99.6612C54.1035 99.6565 54.0264 99.6549 53.9509 99.6549C50.4706 99.6549 47.143 102.266 46.3733 105.6C45.7468 108.317 46.9635 110.832 49.4018 111.86C49.5781 111.934 49.6631 112.136 49.5938 112.314L46.2993 120.842C46.2489 120.976 46.1167 121.067 45.9703 121.067ZM34.9392 91.4083L45.9687 119.734L48.8147 112.37C46.2584 111.127 45.0054 108.386 45.6854 105.441C46.526 101.799 50.1573 98.9466 53.954 98.9466C53.9697 98.9466 53.9871 98.9466 54.0028 98.9466L54.5994 97.4008C52.18 96.2345 50.9145 93.7443 51.3584 90.9597C51.9722 87.1048 55.7217 83.9693 59.7135 83.9693C59.7387 83.9693 59.7639 83.9693 59.7891 83.9693L60.3841 82.4314C57.9569 81.2682 56.685 78.7748 57.1305 75.9824C57.7444 72.1291 61.4922 68.9935 65.4841 68.9935C65.5156 68.9935 65.5455 68.9935 65.577 68.9935L66.1688 67.4619C63.7306 66.3019 62.454 63.807 62.901 61.0067C63.5149 57.1533 67.2628 54.0194 71.2531 54.0194C71.2893 54.0194 71.3255 54.0194 71.3617 54.0194L71.9173 52.5807L60.9854 24.2206L34.9392 91.4083Z" fill="#F9FAFB"/>
<path d="M65.1948 70.9675L61.4595 80.6339C59.7957 79.8233 58.834 78.0697 59.1582 76.0376C59.6006 73.261 62.2844 70.999 65.1948 70.9675Z" fill="#D0D5DD"/>
<path d="M61.4591 80.988C61.4056 80.988 61.3537 80.9754 61.3033 80.9518C59.4491 80.0483 58.47 78.098 58.8068 75.9809C59.2728 73.0531 62.136 70.6463 65.1881 70.6133C65.1897 70.6133 65.1913 70.6133 65.1913 70.6133C65.3078 70.6133 65.4164 70.6699 65.4825 70.766C65.5502 70.862 65.5643 70.9863 65.5218 71.0949L61.7866 80.7613C61.7504 80.8542 61.6779 80.9266 61.5851 80.9628C61.5473 80.9801 61.5032 80.988 61.4591 80.988ZM64.6655 71.3547C62.1502 71.6333 59.8945 73.6623 59.5089 76.0926C59.2429 77.7596 59.9307 79.3022 61.2766 80.1286L64.6655 71.3547Z" fill="#F9FAFB"/>
<path d="M70.4569 76.039C70.9701 76.039 71.4297 75.5982 71.436 75.1071C71.4439 74.5892 71.3856 74.0903 71.2707 73.6165C71.3494 73.607 71.4266 73.6023 71.5021 73.6023C71.9303 73.6023 72.2687 73.7534 72.4544 74.0289C72.6496 74.3185 72.6622 74.7183 72.4906 75.1591C72.1066 76.1444 70.9244 76.9755 69.9092 76.9755C69.4794 76.9755 69.141 76.8244 68.9553 76.5505C68.7617 76.2609 68.7475 75.8611 68.9206 75.4204C69.067 75.0441 69.3299 74.69 69.6557 74.3956C69.714 74.6963 69.7439 75.0079 69.7391 75.3306C69.7329 75.7336 70.0335 76.039 70.4569 76.039Z" fill="#F7F9FC"/>
<path d="M69.909 77.3298C69.3581 77.3298 68.9158 77.1236 68.6624 76.7505C68.4011 76.3601 68.3759 75.8423 68.5915 75.2929C68.7537 74.8789 69.0386 74.4775 69.4195 74.1344C69.5139 74.0494 69.6477 74.0211 69.7689 74.0604C69.8902 74.1013 69.9799 74.2036 70.0051 74.328C70.0696 74.6554 70.0995 74.9938 70.0948 75.337C70.0932 75.4361 70.1247 75.5211 70.1861 75.5825C70.2522 75.6486 70.3466 75.6848 70.4584 75.6848C70.7764 75.6848 71.0802 75.4015 71.0833 75.1024C71.0896 74.6223 71.0377 74.1517 70.9275 73.7015C70.9039 73.6023 70.9227 73.4985 70.981 73.415C71.0392 73.3316 71.1289 73.2765 71.2297 73.2655C71.321 73.2545 71.4139 73.2498 71.5036 73.2498C72.0545 73.2498 72.4968 73.4575 72.7487 73.8322C73.0084 74.2178 73.0352 74.7357 72.8211 75.2882C72.3819 76.4136 71.0754 77.3298 69.909 77.3298ZM69.3849 75.2724C69.3314 75.3637 69.2857 75.4566 69.2495 75.5495C69.1204 75.8785 69.1204 76.1634 69.2495 76.3538C69.366 76.5254 69.6005 76.6214 69.909 76.6214C70.7779 76.6214 71.831 75.8785 72.1615 75.03C72.289 74.7011 72.289 74.4146 72.1615 74.2257C72.0718 74.0919 71.9128 74.0037 71.7066 73.9707C71.7696 74.3422 71.7979 74.7247 71.7916 75.1103C71.7822 75.7935 71.1589 76.3916 70.4584 76.3916C70.1562 76.3916 69.8807 76.2798 69.6808 76.0784C69.4872 75.8816 69.3817 75.614 69.3849 75.326C69.3849 75.3086 69.3849 75.2913 69.3849 75.2724Z" fill="#F9FAFB"/>
<path d="M53.3874 91.0148C53.8313 88.2318 56.5262 85.9699 59.4067 85.9431L55.492 96.0754L55.6746 95.6016C54.0218 94.7894 53.0648 93.0375 53.3874 91.0148Z" fill="#D0D5DD"/>
<path d="M55.4912 96.4295C55.4487 96.4295 55.4062 96.4217 55.3637 96.4059C55.1811 96.3351 55.0898 96.1304 55.1606 95.9478L55.2315 95.7653C53.5755 94.8051 52.7193 92.954 53.0372 90.958C53.5047 88.024 56.3617 85.6156 59.4028 85.5889C59.4043 85.5889 59.4043 85.5889 59.4059 85.5889C59.5224 85.5889 59.631 85.6455 59.6971 85.7416C59.7632 85.8376 59.779 85.9619 59.7365 86.0705L55.8218 96.2028C55.7667 96.3445 55.6329 96.4295 55.4912 96.4295ZM53.7361 91.0698C53.4717 92.7289 54.1548 94.2667 55.4896 95.0947L58.877 86.3287C56.3727 86.6057 54.1249 88.6347 53.7361 91.0698Z" fill="#F9FAFB"/>
<path d="M64.6848 91.0147C65.1979 91.0147 65.6576 90.5724 65.6639 90.0813C65.6717 89.5602 65.6119 89.0565 65.4954 88.5812C65.5789 88.5701 65.6623 88.5654 65.7441 88.5654C66.1739 88.5654 66.5107 88.7165 66.6965 88.992C66.8916 89.2816 66.9027 89.6814 66.7327 90.1222C66.3486 91.1076 65.1665 91.9387 64.1512 91.9387C63.723 91.9387 63.3846 91.7876 63.1989 91.5137C63.0037 91.224 62.9895 90.8211 63.1627 90.3835C63.3075 90.0136 63.564 89.6641 63.8836 89.3729C63.9418 89.6736 63.9702 89.9852 63.9654 90.3079C63.9591 90.7109 64.2629 91.0147 64.6848 91.0147Z" fill="#F7F9FC"/>
<path d="M64.151 92.2913C63.6017 92.2913 63.1593 92.0851 62.9059 91.7104C62.6431 91.3216 62.6163 90.8038 62.8319 90.2528C62.9909 89.8452 63.2727 89.4485 63.6442 89.1085C63.7386 89.0219 63.8724 88.9936 63.9936 89.0329C64.1148 89.0723 64.2061 89.1762 64.2297 89.3005C64.2943 89.6264 64.3242 89.9648 64.3194 90.3079C64.3179 90.4071 64.3493 90.4921 64.4107 90.5551C64.4768 90.6227 64.5713 90.6574 64.6846 90.6574C65.0026 90.6574 65.3064 90.3725 65.3095 90.0718C65.3158 89.5886 65.2623 89.1148 65.1506 88.6615C65.1269 88.5639 65.1458 88.46 65.2025 88.3765C65.2592 88.2931 65.3505 88.238 65.4496 88.2254C65.5472 88.2128 65.6464 88.2065 65.7424 88.2065C66.2933 88.2065 66.7356 88.4127 66.9875 88.789C67.2488 89.1746 67.274 89.6925 67.0599 90.245C66.6239 91.3752 65.3174 92.2913 64.151 92.2913ZM63.6127 90.2607C63.5655 90.3441 63.5261 90.4276 63.4931 90.511C63.364 90.8384 63.3656 91.1249 63.4931 91.3153C63.6095 91.4885 63.8441 91.5845 64.151 91.5845C65.0199 91.5845 66.073 90.8415 66.4035 89.9931C66.531 89.6641 66.531 89.3777 66.4035 89.1888C66.3122 89.0518 66.1469 88.9637 65.9313 88.9322C65.9958 89.31 66.0257 89.6956 66.0194 90.086C66.01 90.7691 65.3867 91.3689 64.6862 91.3689C64.384 91.3689 64.1069 91.2571 63.907 91.0556C63.7118 90.8589 63.608 90.5897 63.6111 90.3016C63.6111 90.2875 63.6111 90.2733 63.6127 90.2607Z" fill="#F9FAFB"/>
<path d="M63.9577 93.5063C63.0179 93.5063 62.2529 93.138 61.8027 92.4706C61.351 91.7985 61.2927 90.8949 61.6453 89.9914C61.9476 89.2154 62.5237 88.485 63.2698 87.9373C63.3312 87.8916 63.4051 87.868 63.4791 87.868C63.5059 87.868 63.5326 87.8712 63.5578 87.8774C63.6586 87.9011 63.7436 87.9656 63.7924 88.0585C63.997 88.4473 64.1434 88.866 64.23 89.3036C64.2536 89.4248 64.2127 89.5491 64.1214 89.6325C63.8286 89.9001 63.6114 90.2024 63.4917 90.5109C63.3627 90.8383 63.3627 91.1248 63.4917 91.3152C63.6082 91.4884 63.8427 91.5828 64.1497 91.5828C65.0186 91.5828 66.0716 90.8399 66.4022 89.9914C66.5297 89.6624 66.5297 89.376 66.4022 89.1871C66.2857 89.0123 66.0512 88.9163 65.7442 88.9163C65.6781 88.9163 65.6104 88.9211 65.5396 88.9289C65.5254 88.9305 65.5097 88.9321 65.4955 88.9321C65.335 88.9321 65.1917 88.8219 65.1524 88.6629C65.0626 88.2977 64.9336 87.9451 64.7699 87.613C64.7227 87.517 64.7211 87.4037 64.7667 87.3061C64.8124 87.2085 64.8989 87.1376 65.0028 87.1109C65.3177 87.0337 65.6325 86.9944 65.9378 86.9944C66.8791 86.9944 67.6441 87.3627 68.0927 88.0301C68.5445 88.7007 68.6027 89.6042 68.2502 90.5077C67.5969 92.1904 65.7112 93.5063 63.9577 93.5063Z" fill="#D0D5DD"/>
<path d="M65.9375 87.3516C66.756 87.3516 67.4172 87.6633 67.7981 88.2316C68.1837 88.8045 68.2294 89.5884 67.9193 90.3833C67.3148 91.9369 65.5739 93.1521 63.9573 93.1521C63.1388 93.1521 62.4777 92.8389 62.0968 92.2722C61.7111 91.6992 61.6655 90.9138 61.9756 90.1204C62.2636 89.3791 62.8114 88.7148 63.4804 88.2221C63.6661 88.5763 63.8031 88.9619 63.8834 89.3712C63.5638 89.6624 63.3073 90.0118 63.1624 90.3817C62.9909 90.8209 63.0035 91.2223 63.1986 91.5119C63.3828 91.7858 63.7212 91.9369 64.151 91.9369C65.1662 91.9369 66.3484 91.1042 66.7324 90.1204C66.9024 89.6797 66.8914 89.2799 66.6962 88.9903C66.5121 88.7148 66.1752 88.5637 65.7455 88.5637C65.6636 88.5637 65.5802 88.5684 65.4968 88.5794C65.3992 88.1859 65.2622 87.8113 65.0875 87.4571C65.3693 87.3878 65.6558 87.3516 65.9375 87.3516ZM65.9375 86.6433C65.6038 86.6433 65.2622 86.6858 64.9175 86.7692C64.7082 86.8196 64.535 86.9629 64.4437 87.158C64.3524 87.3532 64.3556 87.5783 64.45 87.7703C64.6027 88.0804 64.7223 88.4094 64.8058 88.7494C64.8845 89.069 65.171 89.2878 65.4921 89.2878C65.522 89.2878 65.5519 89.2862 65.5818 89.2815C65.6369 89.2752 65.6904 89.2704 65.7408 89.2704C65.9186 89.2704 66.0572 89.3129 66.1044 89.3822C66.1485 89.4483 66.1658 89.612 66.0682 89.8623C65.7911 90.5753 64.875 91.227 64.1478 91.227C63.9731 91.227 63.8298 91.1829 63.7826 91.1137C63.7385 91.0491 63.7212 90.8854 63.8188 90.6383C63.918 90.3833 64.11 90.1189 64.3572 89.8922C64.5397 89.7253 64.6216 89.4751 64.5744 89.2327C64.4815 88.7604 64.3241 88.3087 64.1037 87.89C64.0077 87.7074 63.8361 87.5752 63.6362 87.5295C63.5843 87.5169 63.5308 87.5122 63.4773 87.5122C63.3277 87.5122 63.1797 87.5594 63.057 87.6507C62.2573 88.2394 61.6372 89.0249 61.3113 89.8623C60.9162 90.8744 60.9871 91.8976 61.5049 92.6673C62.0228 93.4354 62.8933 93.8589 63.9542 93.8589C65.8746 93.8589 67.8626 92.4737 68.5772 90.6383C68.9723 89.6246 68.9015 88.603 68.3836 87.8333C67.8705 87.0667 67 86.6433 65.9375 86.6433Z" fill="#F9FAFB"/>
<path d="M122.814 52.582L126.274 57.2995L124.026 63.1173L120.566 58.3998L122.814 52.582Z" fill="#D0D5DD"/>
<path d="M124.026 63.4716C123.914 63.4716 123.807 63.4181 123.741 63.3268L120.281 58.6093C120.21 58.5117 120.193 58.3842 120.237 58.2725L122.485 52.4547C122.532 52.3335 122.641 52.2485 122.768 52.2312C122.897 52.2139 123.023 52.269 123.1 52.3728L126.56 57.0903C126.631 57.1879 126.648 57.3154 126.604 57.4272L124.356 63.245C124.309 63.3662 124.201 63.4512 124.073 63.4685C124.056 63.4701 124.04 63.4716 124.026 63.4716ZM120.966 58.3465L123.928 62.3855L125.872 57.3516L122.91 53.3126L120.966 58.3465Z" fill="#F9FAFB"/>
<path d="M47.6182 105.989C48.0605 103.212 50.7443 100.953 53.6202 100.92L49.8707 110.624L49.8912 110.571C48.2463 109.754 47.2955 108.008 47.6182 105.989Z" fill="#D0D5DD"/>
<path d="M49.8716 110.979C49.8291 110.979 49.7866 110.971 49.7441 110.955C49.6638 110.923 49.6024 110.867 49.5631 110.798C47.8426 109.855 46.9454 107.967 47.2696 105.934C47.7355 103.009 50.5831 100.601 53.6179 100.566C53.7328 100.563 53.8461 100.621 53.9138 100.719C53.9815 100.815 53.9956 100.939 53.9531 101.048L50.2037 110.752C50.147 110.892 50.0132 110.979 49.8716 110.979ZM47.9685 106.044C47.7009 107.723 48.362 109.228 49.7079 110.062L53.0921 101.306C50.5941 101.589 48.3557 103.617 47.9685 106.044Z" fill="#F9FAFB"/>
<path d="M58.9148 105.989C59.4279 105.989 59.886 105.548 59.8939 105.057C59.9017 104.526 59.8404 104.016 59.7207 103.533C59.7805 103.529 59.8388 103.525 59.897 103.525C60.3267 103.525 60.6652 103.677 60.8509 103.952C61.0445 104.24 61.0587 104.641 60.8855 105.081C60.5015 106.068 59.3209 106.9 58.3056 106.9C57.8759 106.9 57.5375 106.749 57.3517 106.474C57.1581 106.186 57.144 105.784 57.3171 105.345C57.4714 104.95 57.7516 104.58 58.0994 104.278C58.1671 104.599 58.2017 104.936 58.1954 105.282C58.1892 105.685 58.4914 105.989 58.9148 105.989Z" fill="#F7F9FC"/>
<path d="M58.3065 107.253C57.754 107.253 57.3117 107.045 57.0598 106.67C56.7985 106.283 56.7734 105.765 56.989 105.214C57.1574 104.78 57.4612 104.363 57.8673 104.01C57.9618 103.928 58.094 103.902 58.2121 103.941C58.3317 103.98 58.4198 104.081 58.4466 104.204C58.5206 104.555 58.5568 104.92 58.5505 105.287C58.5489 105.384 58.5804 105.469 58.6418 105.531C58.7079 105.598 58.8023 105.633 58.9157 105.633C59.2321 105.633 59.5359 105.35 59.5406 105.049C59.5469 104.56 59.4933 104.078 59.3769 103.618C59.3517 103.518 59.3721 103.412 59.432 103.327C59.4918 103.242 59.5862 103.189 59.6885 103.179C59.7578 103.173 59.8286 103.17 59.8979 103.17C60.4504 103.17 60.8927 103.377 61.1446 103.752C61.4059 104.139 61.431 104.657 61.2154 105.208C60.7778 106.337 59.4729 107.253 58.3065 107.253ZM57.8406 105.103C57.7603 105.225 57.6958 105.35 57.647 105.473C57.5179 105.802 57.5179 106.086 57.6454 106.275C57.7619 106.45 57.9964 106.544 58.3049 106.544C58.6103 106.544 58.9377 106.453 59.2478 106.297C59.1408 106.327 59.0274 106.343 58.9141 106.343C58.6119 106.343 58.3348 106.231 58.1349 106.03C57.9413 105.833 57.8359 105.565 57.839 105.277C57.8421 105.219 57.8421 105.161 57.8406 105.103ZM60.1608 103.906C60.2253 104.284 60.2536 104.67 60.2489 105.062C60.2442 105.301 60.1655 105.531 60.0348 105.726C60.2646 105.493 60.4488 105.229 60.5559 104.952C60.6849 104.623 60.6849 104.339 60.5574 104.149C60.4771 104.029 60.3402 103.946 60.1608 103.906Z" fill="#F9FAFB"/>
<path d="M58.1126 108.468C57.1713 108.468 56.4063 108.1 55.9561 107.432C55.5043 106.762 55.4477 105.857 55.8003 104.952C56.1104 104.157 56.7054 103.414 57.4767 102.86C57.538 102.816 57.6089 102.794 57.6829 102.794C57.7096 102.794 57.7364 102.797 57.7616 102.803C57.8607 102.825 57.9457 102.89 57.993 102.979C58.2007 103.36 58.3518 103.773 58.4447 104.204C58.4715 104.33 58.4274 104.461 58.3314 104.546C58.0166 104.819 57.7742 105.148 57.6467 105.473C57.5176 105.802 57.5176 106.085 57.6451 106.275C57.7616 106.45 57.9961 106.545 58.3046 106.545C59.1735 106.545 60.225 105.8 60.554 104.952C60.683 104.623 60.683 104.339 60.5555 104.149C60.4391 103.974 60.2045 103.88 59.896 103.88C59.8488 103.88 59.8 103.883 59.7512 103.886C59.7402 103.888 59.7307 103.888 59.7197 103.888C59.5592 103.888 59.4159 103.779 59.3766 103.62C59.2837 103.252 59.153 102.896 58.9846 102.562C58.9358 102.465 58.9342 102.351 58.9815 102.252C59.0271 102.155 59.1168 102.082 59.2223 102.059C59.5151 101.991 59.8079 101.958 60.0896 101.958C61.0309 101.958 61.7959 102.326 62.2461 102.994C62.6979 103.664 62.7545 104.569 62.4019 105.474C61.7487 107.152 59.8645 108.468 58.1126 108.468Z" fill="#D0D5DD"/>
<path d="M60.0916 102.31C60.9101 102.31 61.5728 102.624 61.9538 103.19C62.3394 103.763 62.3835 104.549 62.0734 105.344C61.4689 106.897 59.728 108.112 58.113 108.112C57.2929 108.112 56.6318 107.799 56.2509 107.233C55.8652 106.66 55.8212 105.874 56.1313 105.079C56.4272 104.32 56.9938 103.642 57.6849 103.146C57.8738 103.494 58.0154 103.873 58.1004 104.276C57.7541 104.579 57.4724 104.949 57.3181 105.344C57.1465 105.783 57.1591 106.184 57.3527 106.472C57.5369 106.748 57.8753 106.899 58.3066 106.899C59.3219 106.899 60.5025 106.066 60.8865 105.079C61.0581 104.64 61.0455 104.239 60.8519 103.951C60.6677 103.675 60.3293 103.524 59.898 103.524C59.8398 103.524 59.7815 103.527 59.7217 103.532C59.6225 103.135 59.4809 102.756 59.303 102.402C59.5659 102.343 59.8303 102.31 60.0916 102.31ZM60.0916 101.602C59.7831 101.602 59.4651 101.638 59.1456 101.712C58.9331 101.761 58.7552 101.904 58.6624 102.101C58.5695 102.298 58.5726 102.526 58.6702 102.721C58.8261 103.031 58.9488 103.363 59.0354 103.707C59.1157 104.025 59.4006 104.242 59.7217 104.242C59.7438 104.242 59.7642 104.24 59.7863 104.239C59.8256 104.235 59.8634 104.234 59.898 104.234C60.0775 104.234 60.216 104.276 60.2632 104.346C60.3073 104.412 60.3246 104.574 60.227 104.821C59.9484 105.539 59.0323 106.19 58.3066 106.19C58.1272 106.19 57.9887 106.148 57.9414 106.079C57.8974 106.013 57.8801 105.85 57.9776 105.603C58.0847 105.329 58.2925 105.049 58.5648 104.813C58.7584 104.645 58.8465 104.383 58.793 104.132C58.6938 103.667 58.5301 103.223 58.3066 102.811C58.209 102.633 58.0406 102.504 57.8423 102.458C57.7903 102.446 57.7368 102.441 57.6833 102.441C57.5369 102.441 57.3921 102.487 57.2709 102.573C56.4445 103.167 55.8054 103.966 55.4701 104.824C55.0751 105.839 55.1443 106.863 55.6622 107.631C56.1801 108.399 57.0505 108.822 58.113 108.822C60.0318 108.822 62.0183 107.437 62.7345 105.602C63.1296 104.587 63.0603 103.563 62.5425 102.795C62.023 102.025 61.1541 101.602 60.0916 101.602Z" fill="#F9FAFB"/>
<path d="M89.3107 109.074L88.6842 110.692H63.6045L64.2278 109.074H89.3107Z" fill="#D0D5DD"/>
<path d="M88.6844 111.046H63.6047C63.4882 111.046 63.3781 110.988 63.3119 110.892C63.2458 110.796 63.2317 110.673 63.2742 110.565L63.8991 108.947C63.951 108.81 64.0832 108.72 64.2296 108.72H89.3125C89.429 108.72 89.5392 108.778 89.6053 108.874C89.6714 108.97 89.6856 109.093 89.6431 109.202L89.0166 110.82C88.9631 110.957 88.8308 111.046 88.6844 111.046ZM64.121 110.338H88.442L88.7946 109.428H64.472L64.121 110.338Z" fill="#D0D5DD"/>
<path d="M87.2937 114.3L86.6672 115.918H61.5859L62.2108 114.3H87.2937Z" fill="#D0D5DD"/>
<path d="M86.6665 116.273H61.5852C61.4687 116.273 61.3585 116.214 61.2924 116.118C61.2263 116.022 61.2121 115.899 61.2546 115.791L61.8795 114.173C61.9315 114.036 62.0637 113.946 62.2101 113.946H87.293C87.4094 113.946 87.5196 114.004 87.5857 114.1C87.6519 114.196 87.666 114.319 87.6235 114.428L86.997 116.046C86.9435 116.183 86.8129 116.273 86.6665 116.273ZM62.1015 115.564H86.4225L86.7751 114.654H62.4525L62.1015 115.564Z" fill="#D0D5DD"/>
<path d="M102.389 105.441L105.849 110.159L99.9481 125.429L96.4883 120.713L102.389 105.441Z" fill="#D0D5DD"/>
<path d="M99.9477 125.783C99.8359 125.783 99.7289 125.729 99.6628 125.638L96.203 120.922C96.1321 120.825 96.1148 120.697 96.1589 120.585L102.06 105.314C102.107 105.192 102.216 105.107 102.343 105.09C102.472 105.073 102.598 105.128 102.676 105.232L106.135 109.949C106.206 110.047 106.224 110.174 106.179 110.286L100.278 125.558C100.231 125.679 100.122 125.764 99.9949 125.781C99.9792 125.783 99.9634 125.783 99.9477 125.783ZM96.8877 120.659L99.8501 124.698L105.447 110.211L102.485 106.171L96.8877 120.659Z" fill="#F9FAFB"/>
<path d="M96.4894 120.713L99.9492 125.429H49.4325L45.9727 120.713H96.4894Z" fill="#D0D5DD"/>
<path d="M99.9493 125.783H49.4326C49.3192 125.783 49.2138 125.729 49.1476 125.638L45.6878 120.92C45.6091 120.813 45.5965 120.67 45.6579 120.551C45.7177 120.431 45.8405 120.357 45.9743 120.357H96.4911C96.6044 120.357 96.7099 120.41 96.776 120.502L100.236 125.219C100.314 125.326 100.327 125.47 100.266 125.589C100.204 125.709 100.083 125.783 99.9493 125.783ZM49.612 125.074H99.2504L96.3101 121.065H46.6716L49.612 125.074Z" fill="#F9FAFB"/>
<path d="M132.978 71.4949L136.437 76.2124L123.222 110.159L119.762 105.441L132.978 71.4949Z" fill="#D0D5DD"/>
<path d="M123.222 110.513C123.11 110.513 123.003 110.459 122.937 110.368L119.477 105.651C119.404 105.553 119.389 105.426 119.433 105.312L132.649 71.3657C132.696 71.2445 132.804 71.1595 132.932 71.1438C133.059 71.1265 133.187 71.1815 133.264 71.2854L136.724 76.0029C136.796 76.1005 136.812 76.228 136.768 76.3414L123.552 110.288C123.505 110.409 123.396 110.494 123.269 110.51C123.251 110.511 123.237 110.513 123.222 110.513ZM120.162 105.388L123.125 109.428L136.038 76.2658L133.074 72.2252L120.162 105.388Z" fill="#F9FAFB"/>
<path d="M119.762 105.441H102.389H70.9863L74.4461 110.159H105.849H123.222L119.762 105.441Z" fill="#D0D5DD"/>
<path d="M123.222 110.513H74.4462C74.3329 110.513 74.2274 110.459 74.1613 110.368L70.7015 105.65C70.6228 105.543 70.6102 105.4 70.6716 105.281C70.7314 105.161 70.8542 105.087 70.988 105.087H119.764C119.877 105.087 119.983 105.14 120.049 105.232L123.509 109.949C123.587 110.056 123.6 110.2 123.538 110.319C123.477 110.437 123.356 110.513 123.222 110.513ZM74.6257 109.804H122.523L119.583 105.795H71.6853L74.6257 109.804Z" fill="#F9FAFB"/>
<path d="M111.489 64.0635C114.793 64.0635 117.042 65.732 117.705 68.2426C117.961 69.217 117.979 70.3173 117.727 71.4963C117.623 71.9842 117.472 72.4848 117.274 72.9963C115.498 77.5596 110.486 81.3232 105.698 81.8647C105.329 81.8426 104.955 81.8316 104.572 81.8316C104.19 81.8316 103.806 81.8426 103.422 81.8647C99.0537 81.3232 96.9727 77.5596 98.7499 72.9963C100.667 68.0616 106.372 64.0635 111.489 64.0635Z" fill="#98A2B3"/>
<path d="M103.416 82.2173C103.402 82.2173 103.388 82.2157 103.372 82.2142C101.241 81.9497 99.5438 80.9266 98.5915 79.332C97.5385 77.5691 97.4755 75.2725 98.4121 72.8657C100.378 67.8161 106.243 63.7078 111.485 63.7078C114.858 63.7078 117.309 65.3684 118.042 68.1514C118.319 69.2044 118.329 70.3535 118.068 71.5687C117.959 72.0803 117.8 72.6029 117.597 73.1239C115.799 77.7454 110.698 81.6538 105.73 82.2157C105.709 82.2173 105.689 82.2189 105.669 82.2173C104.944 82.1748 104.189 82.1748 103.432 82.2173C103.43 82.2173 103.424 82.2173 103.416 82.2173ZM104.568 81.4759C104.943 81.4759 105.319 81.4869 105.684 81.5074C110.4 80.9612 115.234 77.2511 116.941 72.8673C117.129 72.3825 117.277 71.8961 117.378 71.4207C117.614 70.3142 117.609 69.2753 117.361 68.3324C116.714 65.8816 114.52 64.4177 111.488 64.4177C106.514 64.4177 100.945 68.3245 99.0748 73.1254C98.2185 75.3244 98.2641 77.4006 99.2023 78.9716C100.035 80.3662 101.535 81.2666 103.43 81.509C103.811 81.4869 104.194 81.4759 104.568 81.4759Z" fill="#F9FAFB"/>
<path d="M121.488 58.4001L132.978 71.4949H117.723C117.975 70.3159 117.958 69.2156 117.701 68.2413L121.488 58.4001Z" fill="#D0D5DD"/>
<path d="M132.978 71.849H117.724C117.617 71.849 117.516 71.8002 117.448 71.7167C117.381 71.6333 117.355 71.5247 117.377 71.4192C117.614 70.3127 117.609 69.2738 117.36 68.3309C117.341 68.2585 117.346 68.1829 117.373 68.1137L121.16 58.271C121.204 58.1545 121.306 58.0711 121.429 58.049C121.55 58.027 121.676 58.0711 121.758 58.164L133.247 71.2587C133.339 71.3626 133.361 71.5121 133.304 71.638C133.244 71.7687 133.118 71.849 132.978 71.849ZM118.152 71.1406H132.197L121.61 59.0738L118.073 68.2632C118.292 69.1604 118.317 70.1253 118.152 71.1406Z" fill="#F9FAFB"/>
<path d="M104.568 81.8301C104.95 81.8301 105.325 81.8411 105.693 81.8631C115.22 82.4314 119.904 90.2356 116.189 99.7792H78.9688C82.6851 90.2356 93.4471 82.4298 103.416 81.8631C103.801 81.8411 104.185 81.8301 104.568 81.8301Z" fill="#98A2B3"/>
<path d="M116.189 100.135H78.968C78.8515 100.135 78.7413 100.077 78.6752 99.9808C78.6091 99.8848 78.5949 99.762 78.6374 99.6518C82.3743 90.0562 93.248 82.0867 103.394 81.5106C104.18 81.4665 104.962 81.4665 105.713 81.5106C110.279 81.7829 113.933 83.7111 116.003 86.938C118.235 90.4214 118.419 95.0287 116.518 99.9099C116.466 100.045 116.335 100.135 116.189 100.135ZM79.4922 99.4267H115.945C117.668 94.8462 117.479 90.5552 115.406 87.3205C113.462 84.2888 110.006 82.4771 105.672 82.2174C104.948 82.1749 104.193 82.1749 103.435 82.2174C93.7155 82.7699 83.3077 90.2861 79.4922 99.4267Z" fill="#F9FAFB"/>
<path d="M121.489 58.4001L117.702 68.2428C117.039 65.7322 114.79 64.0637 111.486 64.0637C106.37 64.0637 100.664 68.0618 98.7436 72.9965C96.9664 77.5598 99.0473 81.3234 103.415 81.8649C93.4468 82.4315 82.6848 90.2374 78.9685 99.781H116.189C119.905 90.2374 115.219 82.4331 105.693 81.8649C110.483 81.3234 115.495 77.5598 117.269 72.9965C117.469 72.485 117.618 71.9844 117.722 71.4964H132.977L119.761 105.443H102.389H70.9863L89.3022 58.4017H120.565H121.489V58.4001Z" fill="#D0D5DD"/>
<path d="M119.762 105.795H70.9865C70.8701 105.795 70.7599 105.737 70.6938 105.641C70.6277 105.545 70.6135 105.422 70.656 105.312L88.9719 58.271C89.0254 58.1356 89.1561 58.0459 89.3025 58.0459H121.489C121.606 58.0459 121.716 58.1041 121.78 58.2002C121.846 58.2962 121.861 58.419 121.82 58.5276L118.032 68.3703C117.977 68.5135 117.833 68.6064 117.683 68.5969C117.53 68.589 117.4 68.482 117.36 68.334C116.713 65.8816 114.519 64.4193 111.487 64.4193C106.513 64.4193 100.944 68.3262 99.0743 73.1271C98.218 75.3261 98.2637 77.4023 99.2018 78.9732C100.039 80.3757 101.55 81.2777 103.46 81.5153C103.642 81.5374 103.776 81.6948 103.77 81.879C103.763 82.0615 103.619 82.2111 103.436 82.2205C93.7162 82.773 83.3084 90.2892 79.4928 99.4299H115.945C117.669 94.8493 117.48 90.5584 115.407 87.3237C113.463 84.292 110.006 82.4803 105.673 82.2205C105.489 82.2095 105.345 82.06 105.339 81.8758C105.333 81.6916 105.471 81.5358 105.654 81.5138C110.379 80.9802 115.231 77.2638 116.94 72.869C117.129 72.3841 117.277 71.8977 117.378 71.4224C117.412 71.2587 117.557 71.1422 117.724 71.1422H132.978C133.095 71.1422 133.205 71.2004 133.271 71.2965C133.337 71.3925 133.351 71.5152 133.309 71.6254L120.093 105.572C120.039 105.706 119.909 105.795 119.762 105.795ZM71.5044 105.087H119.52L132.46 71.849H118.006C117.902 72.2708 117.766 72.6974 117.6 73.124C116.06 77.0812 112.098 80.5158 107.873 81.7735C111.431 82.4456 114.272 84.2353 116.003 86.9365C118.236 90.4199 118.42 95.0272 116.518 99.9084C116.465 100.044 116.334 100.133 116.188 100.133H78.9687C78.8522 100.133 78.742 100.075 78.6759 99.9792C78.6098 99.8832 78.5956 99.7604 78.6381 99.6503C82.1326 90.6765 91.8714 83.124 101.418 81.7121C100.203 81.2131 99.2302 80.4009 98.5927 79.3321C97.5396 77.5691 97.4766 75.2726 98.4132 72.8658C100.379 67.8162 106.244 63.7078 111.486 63.7078C114.462 63.7078 116.721 65.0017 117.716 67.218L120.973 58.7542H89.5449L71.5044 105.087Z" fill="#F9FAFB"/>
<path d="M66.6233 67.6305C66.5777 67.6305 66.532 67.6211 66.4879 67.6038C63.8435 66.5161 62.4347 63.9268 62.9006 61.0084C63.5161 57.1551 67.2624 54.0195 71.2527 54.0195C71.3927 54.0195 71.5155 54.0227 71.6241 54.029C74.0026 54.1439 75.9985 55.3984 76.9618 57.3865C77.1428 57.758 77.2877 58.1593 77.3884 58.5781C77.5096 59.0865 77.5663 59.6122 77.5568 60.1395C77.5505 60.8195 76.9288 61.4177 76.2251 61.4177C75.9229 61.4177 75.6475 61.3075 75.4491 61.106C75.2539 60.9093 75.1485 60.6417 75.1516 60.352C75.1564 60.0734 75.1327 59.7995 75.0855 59.5367C75.0178 59.1668 74.8966 58.8094 74.7251 58.4742C74.0419 57.1425 72.641 56.346 70.9772 56.346C68.2525 56.3539 65.6946 58.4962 65.2759 61.1202C64.9878 62.9272 65.8205 64.5863 67.3946 65.3466C67.5599 65.4268 67.637 65.6205 67.5709 65.792L66.9507 67.4039C66.9161 67.4936 66.8484 67.5644 66.7602 67.6022C66.7177 67.6211 66.6705 67.6305 66.6233 67.6305Z" fill="#D0D5DD"/>
<path d="M71.2526 54.3736C71.3707 54.3736 71.4887 54.3752 71.6037 54.3831C73.9254 54.4948 75.7671 55.732 76.6438 57.5422C76.8154 57.8948 76.9492 58.2694 77.0452 58.663C77.157 59.132 77.2121 59.6232 77.2042 60.1347C77.1995 60.6243 76.7414 61.065 76.2267 61.065C75.8033 61.065 75.5042 60.7612 75.5074 60.3567C75.5121 60.0529 75.4869 59.7585 75.4365 59.4752C75.361 59.0628 75.2272 58.674 75.043 58.3151C74.3268 56.9173 72.8283 55.9933 70.9803 55.9933C68.0856 56.0028 65.375 58.2726 64.928 61.065C64.6037 63.1003 65.5734 64.8601 67.2435 65.666L66.6233 67.2779C64.2228 66.2909 62.8014 63.881 63.25 61.065C63.8387 57.3738 67.4261 54.3736 71.2526 54.3736ZM71.2526 53.6653C69.2362 53.6653 67.223 54.4208 65.5828 55.7919C63.9395 57.166 62.8628 58.9982 62.5496 60.9517C62.3072 62.4722 62.548 63.9408 63.2485 65.2001C63.9348 66.4342 65.0083 67.3786 66.3525 67.9311C66.4391 67.9673 66.5304 67.9846 66.6217 67.9846C66.7177 67.9846 66.8122 67.9657 66.9019 67.9264C67.0766 67.8508 67.2136 67.7076 67.2828 67.5297L67.903 65.9179C68.0352 65.5732 67.8825 65.1859 67.5504 65.0254C66.0975 64.3249 65.3609 62.8484 65.6269 61.1736C66.0204 58.7149 68.4224 56.7064 70.9819 56.6985C72.5072 56.6985 73.79 57.4226 74.4118 58.6346C74.5661 58.9384 74.6762 59.2643 74.7376 59.5995C74.7817 59.8388 74.8006 60.0891 74.7975 60.3425C74.7927 60.7297 74.9344 61.087 75.1973 61.3515C75.4633 61.6207 75.8285 61.7686 76.2251 61.7686C77.1302 61.7686 77.9031 61.0209 77.911 60.1363C77.9204 59.5854 77.8606 59.0313 77.7331 58.4945C77.6245 58.0475 77.4718 57.6225 77.2782 57.2274C76.2582 55.1229 74.1474 53.7928 71.6351 53.6716C71.5281 53.6684 71.4006 53.6653 71.2526 53.6653Z" fill="#F9FAFB"/>
<path d="M55.0525 97.569C55.0069 97.569 54.9597 97.5595 54.9156 97.5422C52.2916 96.4467 50.8954 93.862 51.3582 90.9595C51.9721 87.1045 55.7215 83.969 59.7134 83.969C59.8251 83.969 59.9337 83.9721 60.0423 83.9769C62.4271 84.0823 64.4309 85.3258 65.4052 87.3013C65.5909 87.6791 65.7389 88.0805 65.8412 88.496C65.9671 89.0076 66.0285 89.5428 66.0207 90.0874C66.0112 90.7706 65.3879 91.3703 64.6874 91.3703C64.3852 91.3703 64.1082 91.2585 63.9083 91.057C63.7131 90.8603 63.6092 90.5911 63.6123 90.3031C63.6171 90.0103 63.5919 89.7207 63.5368 89.442C63.4644 89.0706 63.34 88.718 63.1684 88.3906C62.479 87.0809 61.0922 86.2986 59.4568 86.2986L59.4206 86.3002C56.699 86.3238 54.1537 88.4661 53.7382 91.0728C53.4517 92.8672 54.2734 94.52 55.8317 95.2866C55.997 95.3669 56.0725 95.5605 56.0064 95.732L55.3846 97.3455C55.35 97.4352 55.2808 97.506 55.1926 97.5438C55.147 97.5595 55.0997 97.569 55.0525 97.569Z" fill="#D0D5DD"/>
<path d="M59.7139 84.3233C59.8209 84.3233 59.9248 84.3265 60.0302 84.3312C62.3552 84.4335 64.2 85.6581 65.0877 87.4589C65.2625 87.813 65.3994 88.1877 65.497 88.5812C65.6151 89.0581 65.6733 89.5603 65.6654 90.0813C65.6591 90.5724 65.1995 91.0147 64.6864 91.0147C64.2629 91.0147 63.9607 90.7109 63.967 90.3064C63.9717 89.9837 63.9434 89.672 63.8852 89.3714C63.8049 88.9621 63.6679 88.5765 63.4822 88.2223C62.7597 86.8481 61.2879 85.9415 59.4573 85.9415L59.4085 85.943C56.5264 85.9682 53.8331 88.2318 53.3892 91.0147C53.0665 93.0374 54.0236 94.7893 55.6764 95.6016L55.4938 96.0754L55.0546 97.2134C52.673 96.2186 51.2642 93.815 51.7113 91.0131C52.2968 87.3235 55.8857 84.3233 59.7139 84.3233ZM59.7139 83.615C55.5552 83.615 51.6499 86.8843 51.0092 90.903C50.7684 92.4156 51.0061 93.8795 51.7002 95.1341C52.3802 96.365 53.4443 97.3094 54.7791 97.8667C54.8657 97.9029 54.9602 97.9218 55.0515 97.9218C55.1459 97.9218 55.2403 97.9029 55.3301 97.8651C55.5064 97.7895 55.6433 97.6463 55.7126 97.4684L56.1517 96.3304L56.3343 95.855C56.4665 95.5134 56.3154 95.1262 55.9865 94.9641C54.5493 94.2573 53.8205 92.7871 54.0865 91.1249C54.4769 88.6804 56.8664 86.6734 59.4132 86.6514C59.4195 86.6514 59.4274 86.6514 59.4337 86.6514L59.4699 86.6498C60.9652 86.6545 62.2308 87.3644 62.8557 88.5529C63.0115 88.8504 63.1249 89.1715 63.191 89.5083C63.2414 89.7633 63.265 90.0278 63.2602 90.2969C63.254 90.681 63.3956 91.0383 63.6569 91.3043C63.9229 91.5751 64.2897 91.723 64.6879 91.723C65.5915 91.723 66.3643 90.9754 66.3753 90.0907C66.3832 89.5178 66.3202 88.9511 66.1864 88.4112C66.0778 87.972 65.9236 87.547 65.7252 87.1456C64.6911 85.0521 62.5755 83.7346 60.0633 83.6244C59.9452 83.6181 59.8319 83.615 59.7139 83.615Z" fill="#F9FAFB"/>
<path d="M49.2672 112.54C49.22 112.54 49.1743 112.531 49.1303 112.512C46.363 111.345 44.9779 108.503 45.6846 105.439C46.5252 101.797 50.1566 98.9448 53.9532 98.9448C54.0367 98.9448 54.1201 98.9464 54.2035 98.9495L54.2554 98.9511C56.6307 99.0503 58.6361 100.283 59.6199 102.244C59.8104 102.625 59.9599 103.03 60.0654 103.447C60.196 103.965 60.2574 104.509 60.2495 105.062C60.2369 105.745 59.6152 106.343 58.9163 106.343C58.6141 106.343 58.337 106.231 58.1371 106.03C57.9419 105.833 57.838 105.565 57.8412 105.277C57.8459 104.961 57.816 104.649 57.753 104.352C57.6759 103.987 57.5468 103.639 57.3721 103.318C56.6764 102.036 55.2975 101.273 53.6841 101.273C53.6793 101.273 53.629 101.274 53.6211 101.274C50.9168 101.306 48.3794 103.445 47.9654 106.045C47.6758 107.86 48.4739 109.474 50.0464 110.253C50.2101 110.335 50.2856 110.527 50.2195 110.697L49.5978 112.312C49.5631 112.402 49.4939 112.472 49.4057 112.51C49.3616 112.531 49.3144 112.54 49.2672 112.54Z" fill="#D0D5DD"/>
<path d="M53.9518 99.2992C54.0305 99.2992 54.1108 99.3007 54.1911 99.3039L54.2414 99.3054C56.56 99.403 58.4049 100.615 59.3021 102.403C59.4799 102.759 59.6216 103.137 59.7208 103.533C59.842 104.017 59.9018 104.527 59.8939 105.057C59.8861 105.548 59.428 105.989 58.9149 105.989C58.4914 105.989 58.1892 105.685 58.1955 105.282C58.2002 104.934 58.1672 104.599 58.0995 104.278C58.0145 103.875 57.8728 103.497 57.6839 103.148C56.952 101.802 55.4944 100.917 53.6858 100.917C53.6653 100.917 53.6401 100.917 53.6197 100.919C50.7438 100.952 48.06 103.211 47.6177 105.987C47.295 108.007 48.2458 109.753 49.8907 110.568L49.8702 110.621L49.2689 112.183C46.7646 111.127 45.3416 108.509 46.0311 105.517C46.837 102.024 50.344 99.2992 53.9518 99.2992ZM53.9518 98.5908C49.9977 98.5908 46.2152 101.564 45.3385 105.359C44.5908 108.596 46.0594 111.602 48.9903 112.838C49.0785 112.876 49.1713 112.893 49.2658 112.893C49.3602 112.893 49.4547 112.874 49.5428 112.836C49.7191 112.761 49.8576 112.617 49.9269 112.44L50.5282 110.878L50.5487 110.825C50.6809 110.483 50.5298 110.097 50.2024 109.935C48.7731 109.227 48.049 107.757 48.3135 106.101C48.7023 103.664 51.0838 101.657 53.6244 101.629C53.6386 101.629 53.6527 101.629 53.6669 101.627H53.6826C55.1638 101.627 56.4247 102.323 57.059 103.488C57.218 103.779 57.3345 104.095 57.4037 104.426C57.462 104.698 57.4887 104.983 57.484 105.273C57.4793 105.657 57.6194 106.014 57.8807 106.279C58.1467 106.549 58.5135 106.697 58.9117 106.697C59.8105 106.697 60.5834 105.951 60.5991 105.07C60.607 104.484 60.5424 103.911 60.4039 103.362C60.2922 102.918 60.1332 102.49 59.9317 102.087C58.8897 100.007 56.7725 98.7042 54.2682 98.5987L54.2115 98.5971C54.1281 98.5924 54.04 98.5908 53.9518 98.5908Z" fill="#F9FAFB"/>
<path d="M69.7135 78.5451C68.7707 78.5451 68.0041 78.1768 67.5586 77.5078C67.1069 76.8373 67.0502 75.9338 67.4028 75.0302C67.7066 74.2479 68.2906 73.5144 69.043 72.9635C69.1044 72.9194 69.1768 72.8958 69.2523 72.8958C69.2791 72.8958 69.3059 72.8989 69.3326 72.9052C69.4334 72.9289 69.5184 72.995 69.5656 73.0847C69.7702 73.4719 69.9166 73.8906 70.0032 74.3282C70.0268 74.451 69.9859 74.5753 69.893 74.6588C69.5939 74.9279 69.372 75.2364 69.2508 75.5481C69.1217 75.8771 69.1217 76.162 69.2508 76.354C69.3672 76.5256 69.6018 76.6216 69.9103 76.6216C70.7792 76.6216 71.8322 75.8787 72.1628 75.0302C72.2903 74.7013 72.2903 74.4148 72.1628 74.2259C72.0463 74.0512 71.8118 73.9551 71.5048 73.9551C71.4435 73.9551 71.3789 73.9583 71.3144 73.9662C71.3002 73.9677 71.286 73.9693 71.2735 73.9693C71.1129 73.9693 70.9681 73.8591 70.9303 73.6986C70.8406 73.3334 70.7131 72.9792 70.5494 72.6455C70.5022 72.5495 70.5006 72.4362 70.5462 72.3386C70.5919 72.241 70.68 72.1701 70.7839 72.145C71.0924 72.071 71.4009 72.0332 71.7 72.0332C72.6413 72.0332 73.4063 72.4015 73.8549 73.0689C74.3051 73.7379 74.3634 74.6414 74.0123 75.5465C73.3512 77.2292 71.4671 78.5451 69.7135 78.5451Z" fill="#D0D5DD"/>
<path d="M71.6935 72.389C72.5121 72.389 73.1732 72.7007 73.5541 73.2689C73.9397 73.8419 73.9838 74.6273 73.6753 75.4207C73.0709 76.9743 71.3299 78.1895 69.7134 78.1895C68.8948 78.1895 68.2322 77.8778 67.8528 77.3096C67.4672 76.7366 67.4215 75.9511 67.7316 75.1578C68.0228 74.4117 68.5753 73.7427 69.2506 73.2484C69.4363 73.6026 69.5733 73.9867 69.6535 74.3959C69.3277 74.6903 69.0648 75.0445 68.9185 75.4207C68.7469 75.8614 68.7595 76.2612 68.9531 76.5508C69.1388 76.8247 69.4757 76.9758 69.907 76.9758C70.9223 76.9758 72.1044 76.1432 72.4885 75.1594C72.6585 74.7186 72.6474 74.3188 72.4522 74.0292C72.2681 73.7537 71.9297 73.6026 71.5015 73.6026C71.4244 73.6026 71.3472 73.6073 71.2701 73.6168C71.1741 73.2217 71.0372 72.8455 70.8624 72.4913C71.1379 72.4252 71.4165 72.389 71.6935 72.389ZM71.6935 71.6807C71.3677 71.6807 71.0309 71.7216 70.6956 71.8019C70.4862 71.8522 70.3115 71.9955 70.2202 72.1891C70.1289 72.3827 70.1305 72.6094 70.2249 72.803C70.3776 73.1131 70.4973 73.4436 70.5807 73.7836C70.6594 74.1032 70.9459 74.3235 71.2685 74.3235C71.2969 74.3235 71.3236 74.322 71.352 74.3188C71.4023 74.3125 71.4527 74.3094 71.5015 74.3094C71.6794 74.3094 71.8179 74.3519 71.8651 74.4211C71.9092 74.4872 71.9265 74.6509 71.8289 74.9012C71.5519 75.6143 70.6358 76.2659 69.9085 76.2659C69.7291 76.2659 69.589 76.2219 69.5418 76.1526C69.4977 76.0865 69.4835 75.9244 69.5796 75.6772C69.6803 75.4191 69.8755 75.1499 70.1305 74.9201C70.3147 74.7533 70.3981 74.5014 70.3509 74.2574C70.258 73.7868 70.099 73.335 69.8802 72.9179C69.7842 72.7353 69.6142 72.6046 69.4127 72.5574C69.3592 72.5448 69.3057 72.5385 69.2522 72.5385C69.1026 72.5385 68.9562 72.5858 68.835 72.6755C68.0275 73.2642 67.401 74.0544 67.0721 74.8996C66.677 75.9118 66.7478 76.9349 67.2657 77.7046C67.7788 78.4728 68.6493 78.8962 69.7149 78.8962C71.6353 78.8962 73.6234 77.511 74.338 75.6757C74.7315 74.6604 74.6607 73.6388 74.1444 72.8707C73.6265 72.1057 72.756 71.6807 71.6935 71.6807Z" fill="#F9FAFB"/>
<path d="M60.8362 82.5997C60.7906 82.5997 60.7434 82.5903 60.7009 82.573C58.0674 81.4806 56.6665 78.8928 57.1324 75.9823C57.7463 72.1306 61.4926 68.9966 65.4845 68.9966C65.5978 68.9966 65.7143 68.9966 65.8308 69.0029C65.8323 69.0029 65.8339 69.0029 65.8355 69.0029C68.2092 69.1131 70.2067 70.3582 71.1795 72.3336C71.1842 72.3415 71.1873 72.3494 71.1905 72.3588C71.3684 72.724 71.5116 73.1175 71.6139 73.5299C71.7383 74.0336 71.7965 74.5657 71.7902 75.1119C71.7808 75.7934 71.1574 76.3916 70.4554 76.3916C70.1532 76.3916 69.8777 76.2798 69.6778 76.0783C69.4842 75.8816 69.3803 75.614 69.385 75.3259C69.3897 75.0347 69.363 74.7451 69.3063 74.4665C69.2339 74.0966 69.1096 73.7424 68.938 73.4134C68.6074 72.7838 68.1006 72.2612 67.4741 71.9008C66.8492 71.5387 66.1377 71.3451 65.3585 71.3246C65.3145 71.3231 65.2783 71.3231 65.2389 71.3231C65.2342 71.3231 65.1933 71.3231 65.1933 71.3231C62.4733 71.353 59.9217 73.4921 59.5077 76.0941C59.2212 77.8948 60.0476 79.5523 61.6138 80.3157C61.7791 80.396 61.8562 80.5896 61.7885 80.7612L61.1652 82.3731C61.1306 82.4628 61.0613 82.5336 60.9747 82.5714C60.9307 82.5903 60.8835 82.5997 60.8362 82.5997Z" fill="#D0D5DD"/>
<path d="M65.4824 69.3492C65.5942 69.3492 65.706 69.3492 65.8146 69.3555H65.8161C68.1332 69.4625 69.9733 70.6903 70.8595 72.4895V72.4911C71.0342 72.8436 71.1696 73.2214 71.2672 73.6134C71.3836 74.0872 71.4387 74.5861 71.4324 75.104C71.4261 75.5951 70.9665 76.0343 70.4518 76.0343C70.0299 76.0343 69.7293 75.7305 69.7356 75.3291C69.7403 75.008 69.7104 74.6948 69.6506 74.3941C69.5703 73.9848 69.4334 73.6023 69.2492 73.2466C68.8872 72.5587 68.3378 71.9873 67.6484 71.5907C66.9967 71.2129 66.2222 70.991 65.3644 70.9674C65.3172 70.9658 65.2699 70.9658 65.2211 70.9658H65.1928C62.2823 70.9973 59.5985 73.2576 59.1562 76.0359C58.832 78.0664 59.7953 79.8215 61.4575 80.6322L60.8342 82.244C58.4463 81.2523 57.0297 78.8472 57.4798 76.0359C58.067 72.3494 61.6543 69.3492 65.4824 69.3492ZM65.4824 68.6409C63.466 68.6409 61.4512 69.3964 59.811 70.7674C58.1677 72.1416 57.091 73.9738 56.7794 75.9257C56.537 77.4431 56.7762 78.9101 57.4735 80.1662C58.1551 81.3987 59.2239 82.3432 60.5635 82.8988C60.65 82.935 60.7429 82.9523 60.8342 82.9523C60.9286 82.9523 61.0247 82.9335 61.1128 82.8957C61.2875 82.8201 61.426 82.6785 61.4953 82.499L62.1186 80.8872C62.2509 80.544 62.0997 80.1568 61.7676 79.9947C60.3226 79.2911 59.5891 77.8161 59.8551 76.1461C60.2439 73.7078 62.6412 71.7009 65.1991 71.6725H65.2227C65.2322 71.6725 65.24 71.6725 65.2495 71.6725C65.2778 71.6725 65.3061 71.6725 65.3329 71.6741C65.3376 71.6741 65.3423 71.6741 65.3471 71.6741C66.0664 71.693 66.7212 71.8709 67.2942 72.2014C67.864 72.5288 68.3221 73.0042 68.6227 73.574C68.7785 73.8715 68.8903 74.1926 68.9564 74.5279C69.0084 74.7845 69.032 75.0489 69.0272 75.3165C69.0209 75.6974 69.161 76.0548 69.4223 76.3208C69.6884 76.5915 70.0535 76.7411 70.4518 76.7411C71.3553 76.7411 72.1282 75.9949 72.1408 75.1119C72.1486 74.5358 72.0857 73.9738 71.955 73.4418C71.8464 73.0058 71.6969 72.5918 71.5096 72.2077C71.5048 72.1951 71.4985 72.1841 71.4938 72.1731C70.4628 70.0796 68.352 68.7605 65.8476 68.644C65.846 68.644 65.8445 68.644 65.8429 68.644C65.7201 68.6409 65.5989 68.6409 65.4824 68.6409Z" fill="#F9FAFB"/>
<path d="M134.628 55.8513L134.938 57.7921C135.125 58.9554 135.923 59.8668 137.072 60.2257L138.991 60.8238L136.882 61.422C135.619 61.7809 134.53 62.6922 133.971 63.8555L133.041 65.7963L132.729 63.8555C132.542 62.6922 131.744 61.7809 130.595 61.422L128.678 60.8238L130.785 60.2257C132.048 59.8668 133.137 58.9554 133.696 57.7921L134.628 55.8513Z" fill="#98A2B3"/>
<path d="M46.5792 41.3765L46.8169 42.864C46.9602 43.7565 47.5725 44.4554 48.454 44.7292L49.9241 45.1873L48.3076 45.6485C47.3395 45.9224 46.5037 46.6213 46.0755 47.5122L45.3625 49.0013L45.1248 47.5122C44.9816 46.6197 44.3692 45.9224 43.4878 45.6485L42.0176 45.1889L43.6342 44.7308C44.6022 44.4569 45.438 43.7565 45.8662 42.8655L46.5792 41.3765Z" fill="#98A2B3"/>
<path d="M109.307 93.1526L109.44 93.9821C109.52 94.478 109.861 94.8683 110.353 95.021L111.171 95.276L110.271 95.531C109.731 95.6853 109.265 96.0741 109.026 96.5699L108.627 97.3994L108.495 96.5699C108.415 96.0741 108.075 95.6837 107.584 95.531L106.764 95.276L107.666 95.021C108.206 94.8668 108.67 94.478 108.909 93.9821L109.307 93.1526Z" fill="#F7F9FC"/>
<path d="M36.6284 106.949L36.7607 107.779C36.8409 108.276 37.1825 108.665 37.6736 108.817L38.4921 109.072L37.5918 109.327C37.0519 109.482 36.5859 109.87 36.3467 110.368L35.95 111.197L35.8178 110.368C35.7391 109.87 35.3975 109.482 34.9064 109.327L34.0879 109.072L34.9883 108.817C35.5282 108.665 35.9941 108.276 36.2318 107.779L36.6284 106.949Z" fill="#98A2B3"/>
</svg>
