<svg width="22" height="24" viewBox="0 0 22 24" fill="none" xmlns="http://www.w3.org/2000/svg">
<path d="M11.0003 15.2523C12.7953 15.2523 14.2503 13.7972 14.2503 12.0023C14.2503 10.2074 12.7953 8.75228 11.0003 8.75228C9.2054 8.75228 7.75033 10.2074 7.75033 12.0023C7.75033 13.7972 9.2054 15.2523 11.0003 15.2523Z" stroke="#232949" stroke-width="1.5" stroke-linecap="round" stroke-linejoin="round"/>
<path d="M8.0635 19.9876L8.69665 21.4116C8.88487 21.8355 9.19203 22.1957 9.58089 22.4484C9.96975 22.7012 10.4236 22.8357 10.8874 22.8356C11.3512 22.8357 11.805 22.7012 12.1939 22.4484C12.5827 22.1957 12.8899 21.8355 13.0781 21.4116L13.7113 19.9876C13.9367 19.4824 14.3158 19.0611 14.7946 18.7839C15.2765 18.506 15.8339 18.3876 16.3871 18.4457L17.9363 18.6106C18.3974 18.6594 18.8628 18.5733 19.276 18.3629C19.6892 18.1524 20.0325 17.8266 20.2642 17.425C20.4963 17.0235 20.6068 16.5634 20.5825 16.1004C20.5581 15.6374 20.3999 15.1914 20.127 14.8165L19.2098 13.5563C18.8832 13.1042 18.7087 12.56 18.7115 12.0023C18.7114 11.4461 18.8875 10.9042 19.2146 10.4543L20.1318 9.19404C20.4047 8.81918 20.5629 8.37319 20.5873 7.91017C20.6116 7.44716 20.5011 6.98703 20.2691 6.58561C20.0373 6.18395 19.694 5.85814 19.2808 5.64769C18.8676 5.43724 18.4022 5.35119 17.9411 5.39996L16.3919 5.56487C15.8387 5.62297 15.2813 5.50458 14.7994 5.22663C14.3196 4.94788 13.9404 4.52442 13.7161 4.01691L13.0781 2.59293C12.8899 2.16905 12.5827 1.80889 12.1939 1.55613C11.805 1.30337 11.3512 1.16887 10.8874 1.16895C10.4236 1.16887 9.96975 1.30337 9.58089 1.55613C9.19203 1.80889 8.88487 2.16905 8.69665 2.59293L8.0635 4.01691C7.83917 4.52442 7.45995 4.94788 6.98017 5.22663C6.49832 5.50458 5.94089 5.62297 5.38767 5.56487L3.83369 5.39996C3.37254 5.35119 2.90715 5.43724 2.49394 5.64769C2.08073 5.85814 1.73745 6.18395 1.50572 6.58561C1.2737 6.98703 1.16315 7.44716 1.18751 7.91017C1.21187 8.37319 1.37008 8.81918 1.64295 9.19404L2.56017 10.4543C2.88727 10.9042 3.06342 11.4461 3.06332 12.0023C3.06342 12.5585 2.88727 13.1004 2.56017 13.5502L1.64295 14.8105C1.37008 15.1854 1.21187 15.6314 1.18751 16.0944C1.16315 16.5574 1.2737 17.0175 1.50572 17.4189C1.73768 17.8204 2.081 18.146 2.49415 18.3565C2.9073 18.5669 3.37258 18.6531 3.83369 18.6046L5.38285 18.4397C5.93608 18.3816 6.4935 18.5 6.97535 18.7779C7.45693 19.0559 7.83791 19.4794 8.0635 19.9876Z" stroke="#232949" stroke-width="1.5" stroke-linecap="round" stroke-linejoin="round"/>
</svg>
